<svg width="997" height="724" viewBox="0 0 997 724" fill="none" xmlns="http://www.w3.org/2000/svg">
<rect width="997" height="724" rx="23" fill="#0F52BA"/>
<rect x="20" y="20" width="965" height="679" rx="26" fill="#242526"/>
<path d="M152.5 137L278 138.5L313 150L346.5 165L385 182L414.5 199L420.5 170.5L434 144L412.5 132L388.5 121.5L340 101L314.5 92L285 86L152.5 80.5L146 90.5L143.5 101L143 110.5V120L146 128.5L152.5 137Z" fill="#C4C4C4" stroke="#C4C4C4"/>
<path d="M456 174.5L446.5 219L413.5 201L416 182L422 166L429 152.5L435 143L442.5 139L469.5 149.5L465.5 152.5L460.5 159L458 166.5L456 174.5Z" fill="#A9A9A9"/>
<path d="M429 152.5L422 166L416 182M429 152.5L416 182M429 152.5L435 143L442.5 139L469.5 149.5L465.5 152.5L460.5 159L458 166.5L456 174.5L446.5 219L413.5 201L416 182" stroke="#C4C4C4"/>
<path d="M683.5 530L685.5 553.5L695 556L698.5 530L666.5 426.5L658 406.5L641 390L622 383.5L601.5 385.5L613 413.5H622H636L648 419L658 434.5L683.5 530Z" fill="#0E1111" stroke="black"/>
<path d="M147.531 327.698L158.469 324.113L166.281 319.811L170.188 314.792L173.312 309.774L175.656 304.755L177.219 301.17L178 296.868V289.698L177.219 281.811L175.656 274.642L171.75 262.453L169.406 256L166.281 249.547L160.812 236.642L156.125 225.887L149.094 213.698L142.844 202.226L128.781 180L114.719 202.226L107.688 213.698L100.656 225.887L95.1875 236.642L90.5 249.547L88.1562 256L85.8125 262.453L81.125 274.642L79.5625 281.811L78 289.698V296.868L78.7812 301.17L80.3438 305.472L82.6875 310.491L85.8125 314.792L92.0625 319.811L99.0938 324.113L109.25 327.698L117.844 330.566L128.781 332L138.156 330.566L147.531 327.698Z" fill="#FFFF33" stroke="#FFFF33"/>
<path fill-rule="evenodd" clip-rule="evenodd" d="M531.5 399.5L539 425.5L665 594.5L676 597.5L803 536L800 529V526L810 533L814 531L775.5 473.5L699 555.5L669.5 548.5L621 489L598.5 455L581 417.5L610.5 373L624 353L531.5 399.5Z" fill="black"/>
<path d="M624 353H631.5H661.5H676L694.5 359L710.5 376.5L745 422.5L761 444.5L775.5 473.5M624 353L610.5 373L581 417.5L598.5 455L621 489L669.5 548.5L699 555.5L775.5 473.5M624 353L531.5 399.5L539 425.5L665 594.5L676 597.5L803 536L800 529V526L810 533L814 531L775.5 473.5" stroke="black"/>
<path d="M628 473L625.5 493.5L613 462H602L584 430L581 417.5L584 413L595.5 395.5L602 387L615.5 417.5L628 473Z" fill="#8E8E8E" stroke="#8E8E8E"/>
<path d="M898 497.5L887 484L873.5 497.5L860.5 512L843 520.5L826.5 529.5L836.5 543V551L864 586.5L888 582L905 573.5L918.5 557.5L927 546.5L930 536L905 501L898 497.5Z" fill="#D4AF37" stroke="#D4AF37"/>
<path d="M825 529L814.5 530.5L774 469.5L772 465.5L759.5 442L744 420.5L710.5 375.5L706 370.5L688 356.5L676 353C676 354.5 658.9 353 656.5 353H624L532 399.5H523.5L480 341.5L474.5 263.5L470.5 260.5L443.5 242.5V234L459 164.5L461 159.5L465 154L470.5 149.5L477.5 142L494 139.5L503.5 142L535 152.5L546 156.5L561.5 144L574.5 132.5H585L602 134L668.5 177L710 205.5L716 202H723L725.5 203.5H728L736 198H741.5L750.5 200.5L767.5 217.5L783.5 247L787 256.5L790 272L779.5 284L777.5 289.5L774 292L769.5 295.5V308L812 363L893.5 471V476L859.5 512.5L825 529Z" fill="#0F52BA" stroke="#0F52BA"/>
<path d="M120.799 495.124H135.71V579.937H120.799V495.124Z" fill="#3B9AF0"/>
<path d="M151.824 495.124H167.858L180.124 537.557L183.251 551.187L190.466 537.557L199.445 521.265L208.424 537.557L215.559 551.187L218.766 537.557L231.031 495.124H247.065L219.567 582.546L205.778 557.682L199.445 545.81L193.111 557.682L179.322 582.546L151.824 495.124Z" fill="#3B9AF0"/>
<path d="M291.399 580.949C288.833 580.949 286.188 580.683 283.462 580.15C280.79 579.653 278.171 578.784 275.605 577.541C273.04 576.264 270.608 574.578 268.31 572.483C266.012 570.354 263.981 567.692 262.217 564.497C260.507 561.267 259.144 557.434 258.128 552.997C257.113 548.56 256.605 543.414 256.605 537.557C256.605 531.701 257.113 526.554 258.128 522.117C259.144 517.681 260.507 513.865 262.217 510.671C263.981 507.441 266.012 504.779 268.31 502.684C270.608 500.555 273.04 498.869 275.605 497.626C278.171 496.349 280.79 495.461 283.462 494.964C286.188 494.432 288.833 494.166 291.399 494.166C293.911 494.166 296.529 494.432 299.255 494.964C301.981 495.461 304.626 496.349 307.192 497.626C309.757 498.869 312.189 500.555 314.487 502.684C316.785 504.779 318.79 507.441 320.5 510.671C322.264 513.865 323.653 517.681 324.669 522.117C325.684 526.554 326.192 531.701 326.192 537.557C326.192 543.414 325.684 548.56 324.669 552.997C323.653 557.434 322.264 561.267 320.5 564.497C318.79 567.692 316.785 570.354 314.487 572.483C312.189 574.578 309.757 576.264 307.192 577.541C304.626 578.784 301.981 579.653 299.255 580.15C296.529 580.683 293.911 580.949 291.399 580.949ZM291.399 571.152C293.643 571.152 295.915 570.62 298.213 569.555C300.511 568.455 302.569 566.627 304.386 564.071C306.257 561.48 307.78 558.037 308.956 553.743C310.131 549.412 310.719 544.017 310.719 537.557C310.719 531.097 310.131 525.72 308.956 521.425C307.78 517.095 306.257 513.652 304.386 511.096C302.569 508.505 300.511 506.677 298.213 505.613C295.915 504.512 293.643 503.962 291.399 503.962C289.154 503.962 286.882 504.512 284.584 505.613C282.286 506.677 280.202 508.505 278.331 511.096C276.514 513.652 275.017 517.095 273.842 521.425C272.666 525.72 272.078 531.097 272.078 537.557C272.078 544.017 272.666 549.412 273.842 553.743C275.017 558.037 276.514 561.48 278.331 564.071C280.202 566.627 282.286 568.455 284.584 569.555C286.882 570.62 289.154 571.152 291.399 571.152Z" fill="#3B9AF0"/>
<path d="M347.196 494.059C356.335 493.811 364.299 494.343 371.087 495.657C377.874 496.97 383.486 498.94 387.922 501.566C392.358 504.157 395.672 507.316 397.863 511.043C400.054 514.77 401.15 518.905 401.15 523.448C401.15 528.737 399.707 533.44 396.821 537.557C393.935 541.675 389.499 545.029 383.513 547.62L405.72 579.937H388.884L370.606 551.347C367.933 551.844 365.101 552.216 362.108 552.465V579.937H347.196V494.059ZM362.108 542.402C365.528 542.189 368.681 541.657 371.568 540.805C374.454 539.953 376.939 538.746 379.023 537.185C381.108 535.587 382.738 533.653 383.914 531.381C385.089 529.11 385.677 526.465 385.677 523.448C385.677 520.431 385.089 517.787 383.914 515.515C382.738 513.244 381.108 511.327 379.023 509.765C376.939 508.168 374.454 506.944 371.568 506.092C368.681 505.24 365.528 504.708 362.108 504.495V542.402Z" fill="#3B9AF0"/>
<path d="M450.935 580.949C448.369 580.949 445.724 580.683 442.998 580.15C440.326 579.653 437.707 578.784 435.142 577.541C432.576 576.264 430.144 574.578 427.846 572.483C425.548 570.354 423.517 567.692 421.753 564.497C420.043 561.267 418.68 557.434 417.665 552.997C416.649 548.56 416.142 543.414 416.142 537.557C416.142 531.701 416.649 526.554 417.665 522.117C418.68 517.681 420.043 513.865 421.753 510.671C423.517 507.441 425.548 504.779 427.846 502.684C430.144 500.555 432.576 498.869 435.142 497.626C437.707 496.349 440.326 495.461 442.998 494.964C445.724 494.432 448.369 494.166 450.935 494.166C453.447 494.166 456.066 494.432 458.791 494.964C461.517 495.461 464.163 496.349 466.728 497.626C469.294 498.869 471.725 500.555 474.024 502.684C476.322 504.779 478.326 507.441 480.036 510.671C481.8 513.865 483.19 517.681 484.205 522.117C485.22 526.554 485.728 531.701 485.728 537.557C485.728 543.414 485.22 548.56 484.205 552.997C483.19 557.434 481.8 561.267 480.036 564.497C478.326 567.692 476.322 570.354 474.024 572.483C471.725 574.578 469.294 576.264 466.728 577.541C464.163 578.784 461.517 579.653 458.791 580.15C456.066 580.683 453.447 580.949 450.935 580.949ZM450.935 571.152C453.18 571.152 455.451 570.62 457.749 569.555C460.047 568.455 462.105 566.627 463.922 564.071C465.793 561.48 467.316 558.037 468.492 553.743C469.668 549.412 470.256 544.017 470.256 537.557C470.256 531.097 469.668 525.72 468.492 521.425C467.316 517.095 465.793 513.652 463.922 511.096C462.105 508.505 460.047 506.677 457.749 505.613C455.451 504.512 453.18 503.962 450.935 503.962C448.69 503.962 446.419 504.512 444.12 505.613C441.822 506.677 439.738 508.505 437.867 511.096C436.05 513.652 434.554 517.095 433.378 521.425C432.202 525.72 431.614 531.097 431.614 537.557C431.614 544.017 432.202 549.412 433.378 553.743C434.554 558.037 436.05 561.48 437.867 564.071C439.738 566.627 441.822 568.455 444.12 569.555C446.419 570.62 448.69 571.152 450.935 571.152Z" fill="#3B9AF0"/>
<path d="M506.732 494.059C515.872 493.811 523.835 494.379 530.623 495.763C537.41 497.112 543.022 499.135 547.458 501.832C551.894 504.53 555.208 507.813 557.399 511.682C559.591 515.551 560.686 519.828 560.686 524.513C560.686 528.524 559.884 532.233 558.281 535.641C556.731 539.048 554.326 542.065 551.066 544.692C547.859 547.283 543.797 549.43 538.88 551.134C534.017 552.837 528.271 553.991 521.644 554.594V579.937H506.732V494.059ZM521.644 544.532C525.064 544.319 528.218 543.769 531.104 542.881C533.99 541.959 536.475 540.663 538.56 538.995C540.644 537.327 542.274 535.303 543.45 532.925C544.626 530.512 545.214 527.708 545.214 524.513C545.214 521.319 544.626 518.532 543.45 516.154C542.274 513.741 540.644 511.7 538.56 510.032C536.475 508.363 533.99 507.086 531.104 506.198C528.218 505.275 525.064 504.708 521.644 504.495V544.532Z" fill="#3B9AF0"/>
<path d="M60.7257 657.799V646.761C65.8566 648.748 70.1679 649.742 73.6597 649.742C75.6906 649.742 77.294 649.375 78.4698 648.642C79.6456 647.885 80.2335 646.891 80.2335 645.66C80.2335 644.714 79.7525 643.827 78.7905 642.998C77.8641 642.17 76.2429 641.164 73.9269 639.981C68.3329 637.142 64.271 634.503 61.7412 632.066C59.2471 629.605 58 626.872 58 623.867C58 619.773 59.9419 616.437 63.8256 613.858C67.7094 611.278 72.7333 609.989 78.8974 609.989C83.4581 609.989 87.9832 610.64 92.4727 611.941V622.554C87.6625 620.803 83.761 619.927 80.768 619.927C78.7727 619.927 77.1871 620.258 76.0113 620.921C74.8711 621.56 74.301 622.447 74.301 623.583C74.301 625.571 76.9911 627.807 82.3714 630.291C85.5781 631.759 88.8205 633.829 92.0985 636.503C95.4122 639.153 97.069 642.229 97.069 645.731C97.069 649.825 94.9134 653.221 90.602 655.918C86.2907 658.592 80.8214 659.929 74.1941 659.929C69.669 659.929 65.1796 659.219 60.7257 657.799Z" fill="#3B9AF0"/>
<path d="M103.376 611.302H142.017V622.128H130.847V658.687H114.439V622.128H103.376V611.302Z" fill="#3B9AF0"/>
<path d="M200.006 658.687H183.17L180.445 650.772H163.342L160.509 658.687H143.995L162.914 611.302H181.086L200.006 658.687ZM177.345 642.253C174.922 635.201 173.105 628.493 171.893 622.128H171.68C170.397 628.682 168.598 635.391 166.282 642.253H177.345Z" fill="#3B9AF0"/>
<path d="M243.564 647.506V658.758C240.144 659.491 237.08 659.858 234.372 659.858C225.001 659.858 217.394 657.527 211.55 652.866C205.743 648.18 202.839 642.028 202.839 634.409C202.839 627.334 205.778 621.501 211.657 616.91C217.536 612.296 224.965 609.989 233.944 609.989C237.436 609.989 240.643 610.296 243.564 610.912V622.199C240.465 621.513 237.543 621.169 234.799 621.169C230.595 621.169 227.103 622.447 224.324 625.003C221.545 627.558 220.155 630.812 220.155 634.764C220.155 639.023 221.545 642.395 224.324 644.88C227.139 647.34 230.88 648.571 235.548 648.571C237.828 648.571 240.5 648.216 243.564 647.506Z" fill="#3B9AF0"/>
<path d="M261.79 611.302H277.984V645.376C277.984 649.754 276.256 653.292 272.799 655.989C269.379 658.663 264.836 660 259.171 660C255.608 660 252.098 659.349 248.642 658.048V647.258C251.884 648.677 254.218 649.387 255.643 649.387C259.741 649.387 261.79 647.66 261.79 644.205V611.302Z" fill="#3B9AF0"/>
<path d="M292.895 611.302H325.657V621.382H309.089V630.114H323.466V639.946H309.089V648.571H325.764V658.687H292.895V611.302Z" fill="#3B9AF0"/>
<path d="M365.368 611.302H385.41C392.465 611.302 398.13 612.639 402.406 615.313C406.682 617.987 408.819 621.513 408.819 625.89C408.819 630.504 406.646 634.125 402.299 636.751C397.988 639.354 392.002 640.656 384.341 640.656H381.562V658.687H365.368V611.302ZM381.562 620.389V631.569C385.196 631.522 387.869 631.06 389.579 630.185C391.325 629.309 392.198 627.925 392.198 626.032C392.198 623.997 391.36 622.566 389.686 621.737C388.011 620.886 385.303 620.436 381.562 620.389Z" fill="#3B9AF0"/>
<path d="M465.953 658.687H449.118L446.392 650.772H429.289L426.457 658.687H409.942L428.862 611.302H447.033L465.953 658.687ZM443.292 642.253C440.869 635.201 439.052 628.493 437.841 622.128H437.627C436.344 628.682 434.545 635.391 432.229 642.253H443.292Z" fill="#3B9AF0"/>
<path d="M474.184 611.302H490.378V647.719H503.205V658.687H474.184V611.302Z" fill="#3B9AF0"/>
<path d="M514.749 611.302H530.943V658.687H514.749V611.302Z" fill="#3B9AF0"/>
<path d="M540.19 611.302H555.742L564.935 639.875H565.149L573.486 611.302H587.596L596.041 639.555H596.254L605.02 611.302H621L603.897 658.687H589.253L582.465 637.497C581.717 635.178 581.094 632.942 580.595 630.788H580.381C579.49 634.456 578.849 636.905 578.457 638.136L571.723 658.687H557.292L540.19 611.302Z" fill="#3B9AF0"/>
</svg>
